<mxfile host="app.diagrams.net" modified="2021-11-02T17:40:06.135Z" agent="5.0 (Macintosh; Intel Mac OS X 10_15_7) AppleWebKit/537.36 (KHTML, like Gecko) Chrome/94.0.4606.81 Safari/537.36" etag="iT22lihQN0Fl0eLTaVcr" version="15.5.0" type="github" pages="2">
  <diagram id="w55y51UPpKqbo1LFRMC1" name="Page-1">
    <mxGraphModel dx="786" dy="514" grid="1" gridSize="10" guides="1" tooltips="1" connect="1" arrows="1" fold="1" page="1" pageScale="1" pageWidth="850" pageHeight="1100" math="0" shadow="0">
      <root>
        <mxCell id="0" />
        <mxCell id="1" parent="0" />
        <mxCell id="TVmSLBkFwP5rDofFK3-n-120" value="" style="ellipse;whiteSpace=wrap;html=1;aspect=fixed;fontSize=12;strokeColor=default;strokeWidth=1;fillColor=#FFFFFF;shadow=0;" parent="1" vertex="1">
          <mxGeometry x="959.9999999999999" y="70" width="20" height="20" as="geometry" />
        </mxCell>
        <mxCell id="TVmSLBkFwP5rDofFK3-n-117" value="" style="ellipse;whiteSpace=wrap;html=1;aspect=fixed;fontSize=12;strokeColor=default;strokeWidth=1;fillColor=#FFFFFF;shadow=0;" parent="1" vertex="1">
          <mxGeometry x="877.8299999999999" y="200" width="20" height="20" as="geometry" />
        </mxCell>
        <mxCell id="TVmSLBkFwP5rDofFK3-n-108" value="" style="ellipse;whiteSpace=wrap;html=1;aspect=fixed;fontSize=12;strokeColor=default;strokeWidth=1;fillColor=#FFFFFF;shadow=0;" parent="1" vertex="1">
          <mxGeometry x="715" y="69.75999999999999" width="20" height="20" as="geometry" />
        </mxCell>
        <mxCell id="TVmSLBkFwP5rDofFK3-n-107" value="" style="ellipse;whiteSpace=wrap;html=1;aspect=fixed;fontSize=12;strokeColor=default;strokeWidth=1;fillColor=#FFFFFF;shadow=0;" parent="1" vertex="1">
          <mxGeometry x="648.78" y="200" width="20" height="20" as="geometry" />
        </mxCell>
        <mxCell id="TVmSLBkFwP5rDofFK3-n-104" value="" style="ellipse;whiteSpace=wrap;html=1;aspect=fixed;fontSize=12;strokeColor=default;strokeWidth=1;fillColor=#FFFFFF;shadow=0;" parent="1" vertex="1">
          <mxGeometry x="512.75" y="69.76" width="20" height="20" as="geometry" />
        </mxCell>
        <mxCell id="TVmSLBkFwP5rDofFK3-n-10" value="" style="edgeStyle=orthogonalEdgeStyle;rounded=0;orthogonalLoop=1;jettySize=auto;html=1;" parent="1" source="TVmSLBkFwP5rDofFK3-n-1" edge="1">
          <mxGeometry relative="1" as="geometry">
            <mxPoint x="190" y="80" as="targetPoint" />
          </mxGeometry>
        </mxCell>
        <mxCell id="TVmSLBkFwP5rDofFK3-n-1" value="" style="whiteSpace=wrap;html=1;aspect=fixed;fillColor=#8F87FF;" parent="1" vertex="1">
          <mxGeometry x="30" y="40" width="80" height="80" as="geometry" />
        </mxCell>
        <mxCell id="TVmSLBkFwP5rDofFK3-n-14" value="" style="edgeStyle=orthogonalEdgeStyle;rounded=0;orthogonalLoop=1;jettySize=auto;html=1;" parent="1" source="TVmSLBkFwP5rDofFK3-n-11" target="TVmSLBkFwP5rDofFK3-n-13" edge="1">
          <mxGeometry relative="1" as="geometry" />
        </mxCell>
        <mxCell id="TVmSLBkFwP5rDofFK3-n-11" value="" style="rounded=0;whiteSpace=wrap;html=1;strokeColor=default;rotation=-90;fillColor=#B5739D;" parent="1" vertex="1">
          <mxGeometry x="145" y="65" width="120" height="30" as="geometry" />
        </mxCell>
        <mxCell id="TVmSLBkFwP5rDofFK3-n-16" value="" style="edgeStyle=orthogonalEdgeStyle;rounded=0;orthogonalLoop=1;jettySize=auto;html=1;" parent="1" source="TVmSLBkFwP5rDofFK3-n-13" target="TVmSLBkFwP5rDofFK3-n-15" edge="1">
          <mxGeometry relative="1" as="geometry" />
        </mxCell>
        <mxCell id="TVmSLBkFwP5rDofFK3-n-13" value="" style="rounded=0;whiteSpace=wrap;html=1;strokeColor=default;rotation=-90;fillColor=#B5739D;" parent="1" vertex="1">
          <mxGeometry x="211.25" y="63.75" width="120" height="32.5" as="geometry" />
        </mxCell>
        <mxCell id="TVmSLBkFwP5rDofFK3-n-19" value="" style="edgeStyle=orthogonalEdgeStyle;rounded=0;orthogonalLoop=1;jettySize=auto;html=1;" parent="1" source="TVmSLBkFwP5rDofFK3-n-15" target="TVmSLBkFwP5rDofFK3-n-18" edge="1">
          <mxGeometry relative="1" as="geometry" />
        </mxCell>
        <mxCell id="TVmSLBkFwP5rDofFK3-n-15" value="" style="rounded=0;whiteSpace=wrap;html=1;strokeColor=default;rotation=-90;fillColor=#B5739D;" parent="1" vertex="1">
          <mxGeometry x="320.32" y="30.93" width="120" height="98.13" as="geometry" />
        </mxCell>
        <mxCell id="TVmSLBkFwP5rDofFK3-n-21" value="" style="edgeStyle=orthogonalEdgeStyle;rounded=0;orthogonalLoop=1;jettySize=auto;html=1;" parent="1" source="TVmSLBkFwP5rDofFK3-n-18" target="TVmSLBkFwP5rDofFK3-n-20" edge="1">
          <mxGeometry relative="1" as="geometry" />
        </mxCell>
        <mxCell id="TVmSLBkFwP5rDofFK3-n-18" value="" style="rounded=0;whiteSpace=wrap;html=1;strokeColor=default;rotation=-90;fillColor=#8AF3FF;" parent="1" vertex="1">
          <mxGeometry x="425.09" y="65.23" width="120" height="29.53" as="geometry" />
        </mxCell>
        <mxCell id="TVmSLBkFwP5rDofFK3-n-23" value="" style="edgeStyle=orthogonalEdgeStyle;rounded=0;orthogonalLoop=1;jettySize=auto;html=1;" parent="1" source="TVmSLBkFwP5rDofFK3-n-20" target="TVmSLBkFwP5rDofFK3-n-22" edge="1">
          <mxGeometry relative="1" as="geometry" />
        </mxCell>
        <mxCell id="TVmSLBkFwP5rDofFK3-n-20" value="" style="rounded=0;whiteSpace=wrap;html=1;strokeColor=default;rotation=-90;fillColor=#B5739D;" parent="1" vertex="1">
          <mxGeometry x="533.78" y="31.31" width="120" height="97.38" as="geometry" />
        </mxCell>
        <mxCell id="TVmSLBkFwP5rDofFK3-n-26" value="" style="edgeStyle=orthogonalEdgeStyle;rounded=0;orthogonalLoop=1;jettySize=auto;html=1;startArrow=none;" parent="1" source="TVmSLBkFwP5rDofFK3-n-108" target="TVmSLBkFwP5rDofFK3-n-25" edge="1">
          <mxGeometry relative="1" as="geometry" />
        </mxCell>
        <mxCell id="TVmSLBkFwP5rDofFK3-n-22" value="" style="rounded=0;whiteSpace=wrap;html=1;strokeColor=default;rotation=-90;fillColor=#8AF3FF;" parent="1" vertex="1">
          <mxGeometry x="631.28" y="63.81" width="120" height="32.38" as="geometry" />
        </mxCell>
        <mxCell id="TVmSLBkFwP5rDofFK3-n-28" value="" style="edgeStyle=orthogonalEdgeStyle;rounded=0;orthogonalLoop=1;jettySize=auto;html=1;" parent="1" source="TVmSLBkFwP5rDofFK3-n-25" target="TVmSLBkFwP5rDofFK3-n-27" edge="1">
          <mxGeometry relative="1" as="geometry" />
        </mxCell>
        <mxCell id="TVmSLBkFwP5rDofFK3-n-25" value="" style="rounded=0;whiteSpace=wrap;html=1;strokeColor=default;rotation=-90;fillColor=#B5739D;" parent="1" vertex="1">
          <mxGeometry x="752.83" y="28.45" width="120" height="103.1" as="geometry" />
        </mxCell>
        <mxCell id="TVmSLBkFwP5rDofFK3-n-31" value="" style="edgeStyle=orthogonalEdgeStyle;rounded=0;orthogonalLoop=1;jettySize=auto;html=1;startArrow=none;" parent="1" source="TVmSLBkFwP5rDofFK3-n-120" target="TVmSLBkFwP5rDofFK3-n-30" edge="1">
          <mxGeometry relative="1" as="geometry" />
        </mxCell>
        <mxCell id="TVmSLBkFwP5rDofFK3-n-27" value="" style="rounded=0;whiteSpace=wrap;html=1;strokeColor=default;rotation=-90;fillColor=#8AF3FF;" parent="1" vertex="1">
          <mxGeometry x="872.83" y="63.87" width="120" height="32.38" as="geometry" />
        </mxCell>
        <mxCell id="TVmSLBkFwP5rDofFK3-n-33" value="" style="edgeStyle=orthogonalEdgeStyle;rounded=0;orthogonalLoop=1;jettySize=auto;html=1;" parent="1" source="TVmSLBkFwP5rDofFK3-n-30" target="TVmSLBkFwP5rDofFK3-n-32" edge="1">
          <mxGeometry relative="1" as="geometry" />
        </mxCell>
        <mxCell id="TVmSLBkFwP5rDofFK3-n-30" value="" style="rounded=0;whiteSpace=wrap;html=1;strokeColor=default;rotation=-90;fillColor=#B5739D;" parent="1" vertex="1">
          <mxGeometry x="989.3" y="33.54" width="120" height="93.06" as="geometry" />
        </mxCell>
        <mxCell id="TVmSLBkFwP5rDofFK3-n-51" value="" style="edgeStyle=orthogonalEdgeStyle;rounded=0;orthogonalLoop=1;jettySize=auto;html=1;fontSize=18;" parent="1" source="TVmSLBkFwP5rDofFK3-n-32" target="TVmSLBkFwP5rDofFK3-n-50" edge="1">
          <mxGeometry relative="1" as="geometry" />
        </mxCell>
        <mxCell id="TVmSLBkFwP5rDofFK3-n-32" value="" style="rounded=0;whiteSpace=wrap;html=1;strokeColor=default;rotation=-90;fillColor=#B5739D;" parent="1" vertex="1">
          <mxGeometry x="1121.01" y="61.84" width="120" height="36.46" as="geometry" />
        </mxCell>
        <mxCell id="TVmSLBkFwP5rDofFK3-n-34" value="INPUT" style="text;html=1;resizable=0;autosize=1;align=center;verticalAlign=middle;points=[];fillColor=none;strokeColor=none;rounded=0;rotation=90;fontStyle=1" parent="1" vertex="1">
          <mxGeometry x="45" y="70.07" width="50" height="20" as="geometry" />
        </mxCell>
        <mxCell id="TVmSLBkFwP5rDofFK3-n-35" value="CONV 7X7" style="text;html=1;resizable=0;autosize=1;align=center;verticalAlign=middle;points=[];fillColor=none;strokeColor=none;rounded=0;rotation=90;fontStyle=1" parent="1" vertex="1">
          <mxGeometry x="170" y="69.99000000000001" width="70" height="20" as="geometry" />
        </mxCell>
        <mxCell id="TVmSLBkFwP5rDofFK3-n-36" value="POOL 3X3" style="text;html=1;resizable=0;autosize=1;align=center;verticalAlign=middle;points=[];fillColor=none;strokeColor=none;rounded=0;rotation=90;fontStyle=1" parent="1" vertex="1">
          <mxGeometry x="236.25" y="70" width="70" height="20" as="geometry" />
        </mxCell>
        <mxCell id="TVmSLBkFwP5rDofFK3-n-37" value="DENSE &lt;br&gt;BLOCK 2" style="text;html=1;resizable=0;autosize=1;align=center;verticalAlign=middle;points=[];fillColor=none;strokeColor=none;rounded=0;fontStyle=1" parent="1" vertex="1">
          <mxGeometry x="558.78" y="35.22999999999999" width="70" height="30" as="geometry" />
        </mxCell>
        <mxCell id="TVmSLBkFwP5rDofFK3-n-38" value="TRANSITION 1" style="text;html=1;resizable=0;autosize=1;align=center;verticalAlign=middle;points=[];fillColor=none;strokeColor=none;rounded=0;rotation=90;fontStyle=1" parent="1" vertex="1">
          <mxGeometry x="435.09" y="70.07000000000001" width="100" height="20" as="geometry" />
        </mxCell>
        <mxCell id="TVmSLBkFwP5rDofFK3-n-39" value="DENSE &lt;br&gt;BLOCK 1" style="text;html=1;resizable=0;autosize=1;align=center;verticalAlign=middle;points=[];fillColor=none;strokeColor=none;rounded=0;fontStyle=1" parent="1" vertex="1">
          <mxGeometry x="345.32" y="40.07" width="70" height="30" as="geometry" />
        </mxCell>
        <mxCell id="TVmSLBkFwP5rDofFK3-n-40" value="X6" style="text;html=1;resizable=0;autosize=1;align=center;verticalAlign=middle;points=[];fillColor=none;strokeColor=none;rounded=0;fontSize=18;" parent="1" vertex="1">
          <mxGeometry x="380.32" y="104.06" width="40" height="30" as="geometry" />
        </mxCell>
        <mxCell id="TVmSLBkFwP5rDofFK3-n-41" value="X12" style="text;html=1;resizable=0;autosize=1;align=center;verticalAlign=middle;points=[];fillColor=none;strokeColor=none;rounded=0;fontSize=18;" parent="1" vertex="1">
          <mxGeometry x="581.28" y="99.06" width="50" height="30" as="geometry" />
        </mxCell>
        <mxCell id="TVmSLBkFwP5rDofFK3-n-42" value="TRANSITION 2" style="text;html=1;resizable=0;autosize=1;align=center;verticalAlign=middle;points=[];fillColor=none;strokeColor=none;rounded=0;rotation=90;fontStyle=1" parent="1" vertex="1">
          <mxGeometry x="641.28" y="69.99000000000001" width="100" height="20" as="geometry" />
        </mxCell>
        <mxCell id="TVmSLBkFwP5rDofFK3-n-43" value="DENSE &lt;br&gt;BLOCK 3" style="text;html=1;resizable=0;autosize=1;align=center;verticalAlign=middle;points=[];fillColor=none;strokeColor=none;rounded=0;fontStyle=1" parent="1" vertex="1">
          <mxGeometry x="777.8299999999999" y="31.309999999999988" width="70" height="30" as="geometry" />
        </mxCell>
        <mxCell id="TVmSLBkFwP5rDofFK3-n-44" value="X24" style="text;html=1;resizable=0;autosize=1;align=center;verticalAlign=middle;points=[];fillColor=none;strokeColor=none;rounded=0;fontSize=18;" parent="1" vertex="1">
          <mxGeometry x="800" y="96.6" width="50" height="30" as="geometry" />
        </mxCell>
        <mxCell id="TVmSLBkFwP5rDofFK3-n-45" value="TRANSITION 3" style="text;html=1;resizable=0;autosize=1;align=center;verticalAlign=middle;points=[];fillColor=none;strokeColor=none;rounded=0;rotation=90;fontStyle=1" parent="1" vertex="1">
          <mxGeometry x="882.8299999999999" y="69.99000000000001" width="100" height="20" as="geometry" />
        </mxCell>
        <mxCell id="TVmSLBkFwP5rDofFK3-n-46" value="DENSE &lt;br&gt;BLOCK 4" style="text;html=1;resizable=0;autosize=1;align=center;verticalAlign=middle;points=[];fillColor=none;strokeColor=none;rounded=0;fontStyle=1" parent="1" vertex="1">
          <mxGeometry x="1014.3" y="33.53999999999999" width="70" height="30" as="geometry" />
        </mxCell>
        <mxCell id="TVmSLBkFwP5rDofFK3-n-47" value="X16" style="text;html=1;resizable=0;autosize=1;align=center;verticalAlign=middle;points=[];fillColor=none;strokeColor=none;rounded=0;fontSize=18;" parent="1" vertex="1">
          <mxGeometry x="1034.3" y="94.75999999999999" width="50" height="30" as="geometry" />
        </mxCell>
        <mxCell id="TVmSLBkFwP5rDofFK3-n-48" value="POOL 7X7" style="text;html=1;resizable=0;autosize=1;align=center;verticalAlign=middle;points=[];fillColor=none;strokeColor=none;rounded=0;rotation=90;fontStyle=1" parent="1" vertex="1">
          <mxGeometry x="1144.31" y="70.07000000000001" width="70" height="20" as="geometry" />
        </mxCell>
        <mxCell id="TVmSLBkFwP5rDofFK3-n-55" value="" style="edgeStyle=orthogonalEdgeStyle;rounded=0;orthogonalLoop=1;jettySize=auto;html=1;fontSize=18;" parent="1" source="TVmSLBkFwP5rDofFK3-n-50" target="TVmSLBkFwP5rDofFK3-n-54" edge="1">
          <mxGeometry relative="1" as="geometry" />
        </mxCell>
        <mxCell id="TVmSLBkFwP5rDofFK3-n-50" value="" style="rounded=0;whiteSpace=wrap;html=1;strokeColor=default;rotation=-90;fillColor=#FFE599;" parent="1" vertex="1">
          <mxGeometry x="1198.64" y="61.36" width="120" height="38.07" as="geometry" />
        </mxCell>
        <mxCell id="TVmSLBkFwP5rDofFK3-n-54" value="" style="rounded=0;whiteSpace=wrap;html=1;strokeColor=default;rotation=-90;fillColor=#D5E8D4;" parent="1" vertex="1">
          <mxGeometry x="1277.91" y="60.74" width="120" height="39.32" as="geometry" />
        </mxCell>
        <mxCell id="TVmSLBkFwP5rDofFK3-n-56" value="FC" style="text;html=1;resizable=0;autosize=1;align=center;verticalAlign=middle;points=[];fillColor=none;strokeColor=none;rounded=0;rotation=90;fontStyle=1" parent="1" vertex="1">
          <mxGeometry x="1243.6399999999999" y="70.4" width="30" height="20" as="geometry" />
        </mxCell>
        <mxCell id="TVmSLBkFwP5rDofFK3-n-57" value="OUTPUT" style="text;html=1;resizable=0;autosize=1;align=center;verticalAlign=middle;points=[];fillColor=none;strokeColor=none;rounded=0;rotation=90;fontStyle=1" parent="1" vertex="1">
          <mxGeometry x="1307.9099999999999" y="70.07000000000001" width="60" height="20" as="geometry" />
        </mxCell>
        <mxCell id="TVmSLBkFwP5rDofFK3-n-58" value="" style="whiteSpace=wrap;html=1;aspect=fixed;fontSize=18;strokeColor=default;fillColor=#FF8A14;" parent="1" vertex="1">
          <mxGeometry x="345.32" y="109.06" width="20" height="20" as="geometry" />
        </mxCell>
        <mxCell id="TVmSLBkFwP5rDofFK3-n-59" value="" style="whiteSpace=wrap;html=1;aspect=fixed;fontSize=18;strokeColor=default;fillColor=#FF8A14;" parent="1" vertex="1">
          <mxGeometry x="1014.3" y="100" width="20" height="20" as="geometry" />
        </mxCell>
        <mxCell id="TVmSLBkFwP5rDofFK3-n-60" value="" style="whiteSpace=wrap;html=1;aspect=fixed;fontSize=18;strokeColor=default;fillColor=#FF8A14;" parent="1" vertex="1">
          <mxGeometry x="770" y="101.6" width="20" height="20" as="geometry" />
        </mxCell>
        <mxCell id="TVmSLBkFwP5rDofFK3-n-61" value="" style="whiteSpace=wrap;html=1;aspect=fixed;fontSize=18;strokeColor=default;fillColor=#FF8A14;" parent="1" vertex="1">
          <mxGeometry x="560" y="104.76" width="20" height="20" as="geometry" />
        </mxCell>
        <mxCell id="TVmSLBkFwP5rDofFK3-n-78" value="" style="group" parent="1" vertex="1" connectable="0">
          <mxGeometry x="160" y="280" width="342.5" height="120" as="geometry" />
        </mxCell>
        <mxCell id="TVmSLBkFwP5rDofFK3-n-64" value="" style="whiteSpace=wrap;html=1;aspect=fixed;fontSize=18;strokeColor=default;fillColor=#FF8A14;" parent="TVmSLBkFwP5rDofFK3-n-78" vertex="1">
          <mxGeometry y="40" width="30" height="30" as="geometry" />
        </mxCell>
        <mxCell id="TVmSLBkFwP5rDofFK3-n-65" value="=" style="text;html=1;resizable=0;autosize=1;align=center;verticalAlign=middle;points=[];fillColor=none;strokeColor=none;rounded=0;fontSize=30;fontStyle=1" parent="TVmSLBkFwP5rDofFK3-n-78" vertex="1">
          <mxGeometry x="45" y="35" width="30" height="40" as="geometry" />
        </mxCell>
        <mxCell id="TVmSLBkFwP5rDofFK3-n-66" value="" style="rounded=0;whiteSpace=wrap;html=1;strokeColor=default;rotation=-90;fillColor=#B5739D;" parent="TVmSLBkFwP5rDofFK3-n-78" vertex="1">
          <mxGeometry x="45" y="45" width="120" height="30" as="geometry" />
        </mxCell>
        <mxCell id="TVmSLBkFwP5rDofFK3-n-67" value="" style="rounded=0;whiteSpace=wrap;html=1;strokeColor=default;rotation=-90;fillColor=#B5739D;" parent="TVmSLBkFwP5rDofFK3-n-78" vertex="1">
          <mxGeometry x="111.25" y="43.75" width="120" height="32.5" as="geometry" />
        </mxCell>
        <mxCell id="TVmSLBkFwP5rDofFK3-n-68" value="" style="edgeStyle=orthogonalEdgeStyle;rounded=0;orthogonalLoop=1;jettySize=auto;html=1;fontSize=30;" parent="TVmSLBkFwP5rDofFK3-n-78" source="TVmSLBkFwP5rDofFK3-n-66" target="TVmSLBkFwP5rDofFK3-n-67" edge="1">
          <mxGeometry relative="1" as="geometry" />
        </mxCell>
        <mxCell id="TVmSLBkFwP5rDofFK3-n-69" value="" style="rounded=0;whiteSpace=wrap;html=1;strokeColor=default;rotation=-90;fillColor=#B5739D;" parent="TVmSLBkFwP5rDofFK3-n-78" vertex="1">
          <mxGeometry x="183.75" y="41.25" width="120" height="37.5" as="geometry" />
        </mxCell>
        <mxCell id="TVmSLBkFwP5rDofFK3-n-70" value="" style="edgeStyle=orthogonalEdgeStyle;rounded=0;orthogonalLoop=1;jettySize=auto;html=1;fontSize=30;" parent="TVmSLBkFwP5rDofFK3-n-78" source="TVmSLBkFwP5rDofFK3-n-67" target="TVmSLBkFwP5rDofFK3-n-69" edge="1">
          <mxGeometry relative="1" as="geometry" />
        </mxCell>
        <mxCell id="TVmSLBkFwP5rDofFK3-n-71" value="" style="rounded=0;whiteSpace=wrap;html=1;strokeColor=default;rotation=-90;fillColor=#B5739D;" parent="TVmSLBkFwP5rDofFK3-n-78" vertex="1">
          <mxGeometry x="263.75" y="41.25" width="120" height="37.5" as="geometry" />
        </mxCell>
        <mxCell id="TVmSLBkFwP5rDofFK3-n-72" value="" style="edgeStyle=orthogonalEdgeStyle;rounded=0;orthogonalLoop=1;jettySize=auto;html=1;fontSize=30;" parent="TVmSLBkFwP5rDofFK3-n-78" source="TVmSLBkFwP5rDofFK3-n-69" target="TVmSLBkFwP5rDofFK3-n-71" edge="1">
          <mxGeometry relative="1" as="geometry" />
        </mxCell>
        <mxCell id="TVmSLBkFwP5rDofFK3-n-74" value="BATCH NORM" style="text;html=1;resizable=0;autosize=1;align=center;verticalAlign=middle;points=[];fillColor=none;strokeColor=none;rounded=0;rotation=90;fontStyle=1" parent="TVmSLBkFwP5rDofFK3-n-78" vertex="1">
          <mxGeometry x="55" y="45" width="100" height="20" as="geometry" />
        </mxCell>
        <mxCell id="TVmSLBkFwP5rDofFK3-n-75" value="DROP OUT" style="text;html=1;resizable=0;autosize=1;align=center;verticalAlign=middle;points=[];fillColor=none;strokeColor=none;rounded=0;rotation=90;fontStyle=1" parent="TVmSLBkFwP5rDofFK3-n-78" vertex="1">
          <mxGeometry x="283.75" y="50" width="80" height="20" as="geometry" />
        </mxCell>
        <mxCell id="TVmSLBkFwP5rDofFK3-n-76" value="CONV 3X3" style="text;html=1;resizable=0;autosize=1;align=center;verticalAlign=middle;points=[];fillColor=none;strokeColor=none;rounded=0;rotation=90;fontStyle=1" parent="TVmSLBkFwP5rDofFK3-n-78" vertex="1">
          <mxGeometry x="208.75" y="45" width="70" height="20" as="geometry" />
        </mxCell>
        <mxCell id="TVmSLBkFwP5rDofFK3-n-77" value="ReLU" style="text;html=1;resizable=0;autosize=1;align=center;verticalAlign=middle;points=[];fillColor=none;strokeColor=none;rounded=0;rotation=90;fontStyle=1" parent="TVmSLBkFwP5rDofFK3-n-78" vertex="1">
          <mxGeometry x="145" y="45" width="50" height="20" as="geometry" />
        </mxCell>
        <mxCell id="TVmSLBkFwP5rDofFK3-n-94" value="" style="group" parent="1" vertex="1" connectable="0">
          <mxGeometry x="160" y="450" width="342.5" height="130" as="geometry" />
        </mxCell>
        <mxCell id="TVmSLBkFwP5rDofFK3-n-79" value="" style="group" parent="TVmSLBkFwP5rDofFK3-n-94" vertex="1" connectable="0">
          <mxGeometry width="342.5" height="130" as="geometry" />
        </mxCell>
        <mxCell id="TVmSLBkFwP5rDofFK3-n-81" value="=" style="text;html=1;resizable=0;autosize=1;align=center;verticalAlign=middle;points=[];fillColor=none;strokeColor=none;rounded=0;fontSize=30;fontStyle=1" parent="TVmSLBkFwP5rDofFK3-n-79" vertex="1">
          <mxGeometry x="45" y="35" width="30" height="40" as="geometry" />
        </mxCell>
        <mxCell id="TVmSLBkFwP5rDofFK3-n-82" value="" style="rounded=0;whiteSpace=wrap;html=1;strokeColor=default;rotation=-90;fillColor=#B5739D;" parent="TVmSLBkFwP5rDofFK3-n-79" vertex="1">
          <mxGeometry x="45" y="45" width="120" height="30" as="geometry" />
        </mxCell>
        <mxCell id="TVmSLBkFwP5rDofFK3-n-83" value="" style="rounded=0;whiteSpace=wrap;html=1;strokeColor=default;rotation=-90;fillColor=#B5739D;" parent="TVmSLBkFwP5rDofFK3-n-79" vertex="1">
          <mxGeometry x="111.25" y="43.75" width="120" height="32.5" as="geometry" />
        </mxCell>
        <mxCell id="TVmSLBkFwP5rDofFK3-n-84" value="" style="edgeStyle=orthogonalEdgeStyle;rounded=0;orthogonalLoop=1;jettySize=auto;html=1;fontSize=30;" parent="TVmSLBkFwP5rDofFK3-n-79" source="TVmSLBkFwP5rDofFK3-n-82" target="TVmSLBkFwP5rDofFK3-n-83" edge="1">
          <mxGeometry relative="1" as="geometry" />
        </mxCell>
        <mxCell id="TVmSLBkFwP5rDofFK3-n-85" value="" style="rounded=0;whiteSpace=wrap;html=1;strokeColor=default;rotation=-90;fillColor=#B5739D;" parent="TVmSLBkFwP5rDofFK3-n-79" vertex="1">
          <mxGeometry x="183.75" y="41.25" width="120" height="37.5" as="geometry" />
        </mxCell>
        <mxCell id="TVmSLBkFwP5rDofFK3-n-86" value="" style="edgeStyle=orthogonalEdgeStyle;rounded=0;orthogonalLoop=1;jettySize=auto;html=1;fontSize=30;" parent="TVmSLBkFwP5rDofFK3-n-79" source="TVmSLBkFwP5rDofFK3-n-83" target="TVmSLBkFwP5rDofFK3-n-85" edge="1">
          <mxGeometry relative="1" as="geometry" />
        </mxCell>
        <mxCell id="TVmSLBkFwP5rDofFK3-n-87" value="" style="rounded=0;whiteSpace=wrap;html=1;strokeColor=default;rotation=-90;fillColor=#B5739D;" parent="TVmSLBkFwP5rDofFK3-n-79" vertex="1">
          <mxGeometry x="263.75" y="41.25" width="120" height="37.5" as="geometry" />
        </mxCell>
        <mxCell id="TVmSLBkFwP5rDofFK3-n-88" value="" style="edgeStyle=orthogonalEdgeStyle;rounded=0;orthogonalLoop=1;jettySize=auto;html=1;fontSize=30;" parent="TVmSLBkFwP5rDofFK3-n-79" source="TVmSLBkFwP5rDofFK3-n-85" target="TVmSLBkFwP5rDofFK3-n-87" edge="1">
          <mxGeometry relative="1" as="geometry" />
        </mxCell>
        <mxCell id="TVmSLBkFwP5rDofFK3-n-89" value="BATCH NORM" style="text;html=1;resizable=0;autosize=1;align=center;verticalAlign=middle;points=[];fillColor=none;strokeColor=none;rounded=0;rotation=90;fontStyle=1" parent="TVmSLBkFwP5rDofFK3-n-79" vertex="1">
          <mxGeometry x="55" y="45" width="100" height="20" as="geometry" />
        </mxCell>
        <mxCell id="TVmSLBkFwP5rDofFK3-n-90" value="DROP OUT" style="text;html=1;resizable=0;autosize=1;align=center;verticalAlign=middle;points=[];fillColor=none;strokeColor=none;rounded=0;rotation=90;fontStyle=1" parent="TVmSLBkFwP5rDofFK3-n-79" vertex="1">
          <mxGeometry x="283.75" y="50" width="80" height="20" as="geometry" />
        </mxCell>
        <mxCell id="TVmSLBkFwP5rDofFK3-n-91" value="CONV 1X1" style="text;html=1;resizable=0;autosize=1;align=center;verticalAlign=middle;points=[];fillColor=none;strokeColor=none;rounded=0;rotation=90;fontStyle=1" parent="TVmSLBkFwP5rDofFK3-n-79" vertex="1">
          <mxGeometry x="208.75" y="45" width="70" height="20" as="geometry" />
        </mxCell>
        <mxCell id="TVmSLBkFwP5rDofFK3-n-92" value="ReLU" style="text;html=1;resizable=0;autosize=1;align=center;verticalAlign=middle;points=[];fillColor=none;strokeColor=none;rounded=0;rotation=90;fontStyle=1" parent="TVmSLBkFwP5rDofFK3-n-79" vertex="1">
          <mxGeometry x="145" y="45" width="50" height="20" as="geometry" />
        </mxCell>
        <mxCell id="TVmSLBkFwP5rDofFK3-n-93" value="" style="rounded=0;whiteSpace=wrap;html=1;fontSize=30;strokeColor=default;fillColor=#8AF3FF;rotation=-90;" parent="TVmSLBkFwP5rDofFK3-n-94" vertex="1">
          <mxGeometry x="-40" y="40" width="120" height="40" as="geometry" />
        </mxCell>
        <mxCell id="TVmSLBkFwP5rDofFK3-n-96" value="" style="whiteSpace=wrap;html=1;fontSize=30;strokeColor=default;fillColor=#B5739D;rotation=-90;" parent="1" vertex="1">
          <mxGeometry x="493.75" y="490" width="120" height="40" as="geometry" />
        </mxCell>
        <mxCell id="TVmSLBkFwP5rDofFK3-n-97" value="" style="edgeStyle=orthogonalEdgeStyle;rounded=0;orthogonalLoop=1;jettySize=auto;html=1;fontSize=30;" parent="1" source="TVmSLBkFwP5rDofFK3-n-90" target="TVmSLBkFwP5rDofFK3-n-96" edge="1">
          <mxGeometry relative="1" as="geometry" />
        </mxCell>
        <mxCell id="TVmSLBkFwP5rDofFK3-n-98" value="POOL 2X2" style="text;html=1;resizable=0;autosize=1;align=center;verticalAlign=middle;points=[];fillColor=none;strokeColor=none;rounded=0;fontSize=12;rotation=90;fontStyle=1" parent="1" vertex="1">
          <mxGeometry x="518.75" y="500" width="70" height="20" as="geometry" />
        </mxCell>
        <mxCell id="TVmSLBkFwP5rDofFK3-n-99" value="" style="endArrow=none;startArrow=none;html=1;fontSize=12;edgeStyle=orthogonalEdgeStyle;strokeColor=default;rounded=1;startFill=0;endFill=0;entryX=0.5;entryY=0;entryDx=0;entryDy=0;" parent="1" target="TVmSLBkFwP5rDofFK3-n-120" edge="1">
          <mxGeometry width="50" height="50" relative="1" as="geometry">
            <mxPoint x="450" y="80" as="sourcePoint" />
            <mxPoint x="970" y="80" as="targetPoint" />
            <Array as="points">
              <mxPoint x="450" y="210" />
              <mxPoint x="970" y="210" />
            </Array>
          </mxGeometry>
        </mxCell>
        <mxCell id="TVmSLBkFwP5rDofFK3-n-100" value="" style="line;strokeWidth=1;direction=south;html=1;fontSize=12;fillColor=#FFFFFF;" parent="1" vertex="1">
          <mxGeometry x="517.75" y="70" width="10" height="140" as="geometry" />
        </mxCell>
        <mxCell id="TVmSLBkFwP5rDofFK3-n-101" value="" style="line;strokeWidth=1;direction=south;html=1;fontSize=12;fillColor=#FFFFFF;" parent="1" vertex="1">
          <mxGeometry x="882.83" y="80" width="10" height="140" as="geometry" />
        </mxCell>
        <mxCell id="TVmSLBkFwP5rDofFK3-n-102" value="" style="line;strokeWidth=1;direction=south;html=1;fontSize=12;fillColor=#FFFFFF;" parent="1" vertex="1">
          <mxGeometry x="720" y="70" width="10" height="140" as="geometry" />
        </mxCell>
        <mxCell id="TVmSLBkFwP5rDofFK3-n-103" value="" style="line;strokeWidth=1;direction=south;html=1;fontSize=12;fillColor=#FFFFFF;" parent="1" vertex="1">
          <mxGeometry x="653.78" y="80" width="10" height="140" as="geometry" />
        </mxCell>
        <mxCell id="TVmSLBkFwP5rDofFK3-n-109" value="" style="edgeStyle=orthogonalEdgeStyle;rounded=0;orthogonalLoop=1;jettySize=auto;html=1;endArrow=none;" parent="1" source="TVmSLBkFwP5rDofFK3-n-22" target="TVmSLBkFwP5rDofFK3-n-108" edge="1">
          <mxGeometry relative="1" as="geometry">
            <mxPoint x="707.4699999999998" y="80" as="sourcePoint" />
            <mxPoint x="761.28" y="80.06572740022966" as="targetPoint" />
          </mxGeometry>
        </mxCell>
        <mxCell id="TVmSLBkFwP5rDofFK3-n-121" value="" style="edgeStyle=orthogonalEdgeStyle;rounded=0;orthogonalLoop=1;jettySize=auto;html=1;endArrow=none;" parent="1" source="TVmSLBkFwP5rDofFK3-n-27" target="TVmSLBkFwP5rDofFK3-n-120" edge="1">
          <mxGeometry relative="1" as="geometry">
            <mxPoint x="949.02" y="80.07503598792675" as="sourcePoint" />
            <mxPoint x="1002.77" y="80.08901771117166" as="targetPoint" />
          </mxGeometry>
        </mxCell>
      </root>
    </mxGraphModel>
  </diagram>
  <diagram id="P3LxtTWpAGniqx02yY0K" name="Page-2">
    <mxGraphModel dx="706" dy="517" grid="1" gridSize="10" guides="1" tooltips="1" connect="1" arrows="1" fold="1" page="1" pageScale="1" pageWidth="850" pageHeight="1100" math="0" shadow="0">
      <root>
        <mxCell id="NhrbqT9kIadJIBjHelAD-0" />
        <mxCell id="NhrbqT9kIadJIBjHelAD-1" parent="NhrbqT9kIadJIBjHelAD-0" />
        <mxCell id="x4TZjcgzBtY4sppgU5ym-3" value="" style="edgeStyle=orthogonalEdgeStyle;rounded=0;orthogonalLoop=1;jettySize=auto;html=1;" parent="NhrbqT9kIadJIBjHelAD-1" source="x4TZjcgzBtY4sppgU5ym-1" target="x4TZjcgzBtY4sppgU5ym-2" edge="1">
          <mxGeometry relative="1" as="geometry" />
        </mxCell>
        <mxCell id="x4TZjcgzBtY4sppgU5ym-1" value="Dataset" style="rounded=0;whiteSpace=wrap;html=1;" parent="NhrbqT9kIadJIBjHelAD-1" vertex="1">
          <mxGeometry x="305" y="30" width="120" height="60" as="geometry" />
        </mxCell>
        <mxCell id="x4TZjcgzBtY4sppgU5ym-5" value="" style="edgeStyle=orthogonalEdgeStyle;rounded=0;orthogonalLoop=1;jettySize=auto;html=1;" parent="NhrbqT9kIadJIBjHelAD-1" source="x4TZjcgzBtY4sppgU5ym-2" target="x4TZjcgzBtY4sppgU5ym-4" edge="1">
          <mxGeometry relative="1" as="geometry" />
        </mxCell>
        <mxCell id="ubYUxe-bVhRZC_ul4Mby-1" value="" style="edgeStyle=orthogonalEdgeStyle;rounded=0;orthogonalLoop=1;jettySize=auto;html=1;" edge="1" parent="NhrbqT9kIadJIBjHelAD-1" source="x4TZjcgzBtY4sppgU5ym-2" target="ubYUxe-bVhRZC_ul4Mby-0">
          <mxGeometry relative="1" as="geometry" />
        </mxCell>
        <mxCell id="x4TZjcgzBtY4sppgU5ym-2" value="Data Preparation" style="whiteSpace=wrap;html=1;rounded=0;" parent="NhrbqT9kIadJIBjHelAD-1" vertex="1">
          <mxGeometry x="305" y="130" width="120" height="60" as="geometry" />
        </mxCell>
        <mxCell id="x4TZjcgzBtY4sppgU5ym-7" value="" style="edgeStyle=orthogonalEdgeStyle;rounded=0;orthogonalLoop=1;jettySize=auto;html=1;" parent="NhrbqT9kIadJIBjHelAD-1" source="x4TZjcgzBtY4sppgU5ym-4" target="x4TZjcgzBtY4sppgU5ym-6" edge="1">
          <mxGeometry relative="1" as="geometry" />
        </mxCell>
        <mxCell id="x4TZjcgzBtY4sppgU5ym-4" value="Data Augmentation" style="whiteSpace=wrap;html=1;rounded=0;" parent="NhrbqT9kIadJIBjHelAD-1" vertex="1">
          <mxGeometry x="305" y="230" width="120" height="60" as="geometry" />
        </mxCell>
        <mxCell id="x4TZjcgzBtY4sppgU5ym-10" value="" style="edgeStyle=orthogonalEdgeStyle;rounded=0;orthogonalLoop=1;jettySize=auto;html=1;" parent="NhrbqT9kIadJIBjHelAD-1" source="x4TZjcgzBtY4sppgU5ym-6" target="x4TZjcgzBtY4sppgU5ym-8" edge="1">
          <mxGeometry relative="1" as="geometry" />
        </mxCell>
        <mxCell id="x4TZjcgzBtY4sppgU5ym-6" value="Splitting Data&lt;br&gt;&amp;nbsp;Into Training, Testing and Validation Set" style="whiteSpace=wrap;html=1;rounded=0;" parent="NhrbqT9kIadJIBjHelAD-1" vertex="1">
          <mxGeometry x="305" y="330" width="120" height="60" as="geometry" />
        </mxCell>
        <mxCell id="x4TZjcgzBtY4sppgU5ym-28" value="" style="edgeStyle=orthogonalEdgeStyle;rounded=0;orthogonalLoop=1;jettySize=auto;html=1;" parent="NhrbqT9kIadJIBjHelAD-1" source="x4TZjcgzBtY4sppgU5ym-8" target="x4TZjcgzBtY4sppgU5ym-27" edge="1">
          <mxGeometry relative="1" as="geometry" />
        </mxCell>
        <mxCell id="x4TZjcgzBtY4sppgU5ym-8" value="" style="whiteSpace=wrap;html=1;aspect=fixed;" parent="NhrbqT9kIadJIBjHelAD-1" vertex="1">
          <mxGeometry x="265" y="460" width="200" height="200" as="geometry" />
        </mxCell>
        <mxCell id="x4TZjcgzBtY4sppgU5ym-14" value="" style="edgeStyle=orthogonalEdgeStyle;rounded=0;orthogonalLoop=1;jettySize=auto;html=1;" parent="NhrbqT9kIadJIBjHelAD-1" source="x4TZjcgzBtY4sppgU5ym-11" target="x4TZjcgzBtY4sppgU5ym-13" edge="1">
          <mxGeometry relative="1" as="geometry" />
        </mxCell>
        <mxCell id="x4TZjcgzBtY4sppgU5ym-15" value="" style="edgeStyle=orthogonalEdgeStyle;rounded=0;orthogonalLoop=1;jettySize=auto;html=1;" parent="NhrbqT9kIadJIBjHelAD-1" source="x4TZjcgzBtY4sppgU5ym-11" target="x4TZjcgzBtY4sppgU5ym-13" edge="1">
          <mxGeometry relative="1" as="geometry" />
        </mxCell>
        <mxCell id="x4TZjcgzBtY4sppgU5ym-11" value="Model Selection" style="rounded=0;whiteSpace=wrap;html=1;" parent="NhrbqT9kIadJIBjHelAD-1" vertex="1">
          <mxGeometry x="300" y="464" width="130" height="20" as="geometry" />
        </mxCell>
        <mxCell id="x4TZjcgzBtY4sppgU5ym-12" value="&lt;b&gt;CNN Model&lt;br&gt;Process&lt;br&gt;&lt;/b&gt;" style="text;html=1;resizable=0;autosize=1;align=center;verticalAlign=middle;points=[];fillColor=none;strokeColor=none;rounded=0;" parent="NhrbqT9kIadJIBjHelAD-1" vertex="1">
          <mxGeometry x="160" y="550" width="80" height="30" as="geometry" />
        </mxCell>
        <mxCell id="x4TZjcgzBtY4sppgU5ym-21" value="" style="edgeStyle=orthogonalEdgeStyle;rounded=0;orthogonalLoop=1;jettySize=auto;html=1;" parent="NhrbqT9kIadJIBjHelAD-1" source="x4TZjcgzBtY4sppgU5ym-13" target="x4TZjcgzBtY4sppgU5ym-20" edge="1">
          <mxGeometry relative="1" as="geometry" />
        </mxCell>
        <mxCell id="x4TZjcgzBtY4sppgU5ym-13" value="Model Fitting" style="whiteSpace=wrap;html=1;rounded=0;" parent="NhrbqT9kIadJIBjHelAD-1" vertex="1">
          <mxGeometry x="300" y="500" width="130" height="20" as="geometry" />
        </mxCell>
        <mxCell id="x4TZjcgzBtY4sppgU5ym-23" value="" style="edgeStyle=orthogonalEdgeStyle;rounded=0;orthogonalLoop=1;jettySize=auto;html=1;" parent="NhrbqT9kIadJIBjHelAD-1" source="x4TZjcgzBtY4sppgU5ym-20" target="x4TZjcgzBtY4sppgU5ym-22" edge="1">
          <mxGeometry relative="1" as="geometry" />
        </mxCell>
        <mxCell id="x4TZjcgzBtY4sppgU5ym-20" value="Network Structure &amp;amp; Layers" style="whiteSpace=wrap;html=1;rounded=0;" parent="NhrbqT9kIadJIBjHelAD-1" vertex="1">
          <mxGeometry x="300" y="536" width="130" height="35" as="geometry" />
        </mxCell>
        <mxCell id="x4TZjcgzBtY4sppgU5ym-25" value="" style="edgeStyle=orthogonalEdgeStyle;rounded=0;orthogonalLoop=1;jettySize=auto;html=1;" parent="NhrbqT9kIadJIBjHelAD-1" source="x4TZjcgzBtY4sppgU5ym-22" target="x4TZjcgzBtY4sppgU5ym-24" edge="1">
          <mxGeometry relative="1" as="geometry" />
        </mxCell>
        <mxCell id="x4TZjcgzBtY4sppgU5ym-22" value="Loss Function" style="whiteSpace=wrap;html=1;rounded=0;" parent="NhrbqT9kIadJIBjHelAD-1" vertex="1">
          <mxGeometry x="300" y="585" width="130" height="20" as="geometry" />
        </mxCell>
        <mxCell id="x4TZjcgzBtY4sppgU5ym-31" value="" style="edgeStyle=orthogonalEdgeStyle;rounded=0;orthogonalLoop=1;jettySize=auto;html=1;" parent="NhrbqT9kIadJIBjHelAD-1" source="x4TZjcgzBtY4sppgU5ym-24" target="x4TZjcgzBtY4sppgU5ym-27" edge="1">
          <mxGeometry relative="1" as="geometry" />
        </mxCell>
        <mxCell id="x4TZjcgzBtY4sppgU5ym-24" value="&lt;font style=&quot;font-size: 10px&quot;&gt;Optimization/Parameter Tuning&lt;/font&gt;" style="whiteSpace=wrap;html=1;rounded=0;" parent="NhrbqT9kIadJIBjHelAD-1" vertex="1">
          <mxGeometry x="300" y="619" width="130" height="30" as="geometry" />
        </mxCell>
        <mxCell id="x4TZjcgzBtY4sppgU5ym-33" value="" style="edgeStyle=orthogonalEdgeStyle;rounded=0;orthogonalLoop=1;jettySize=auto;html=1;fontSize=10;" parent="NhrbqT9kIadJIBjHelAD-1" source="x4TZjcgzBtY4sppgU5ym-27" target="x4TZjcgzBtY4sppgU5ym-32" edge="1">
          <mxGeometry relative="1" as="geometry" />
        </mxCell>
        <mxCell id="ubYUxe-bVhRZC_ul4Mby-6" value="" style="edgeStyle=orthogonalEdgeStyle;rounded=0;orthogonalLoop=1;jettySize=auto;html=1;" edge="1" parent="NhrbqT9kIadJIBjHelAD-1" source="x4TZjcgzBtY4sppgU5ym-27" target="ubYUxe-bVhRZC_ul4Mby-5">
          <mxGeometry relative="1" as="geometry" />
        </mxCell>
        <mxCell id="x4TZjcgzBtY4sppgU5ym-27" value="Model Training" style="whiteSpace=wrap;html=1;" parent="NhrbqT9kIadJIBjHelAD-1" vertex="1">
          <mxGeometry x="305" y="691" width="120" height="60" as="geometry" />
        </mxCell>
        <mxCell id="x4TZjcgzBtY4sppgU5ym-39" value="" style="edgeStyle=orthogonalEdgeStyle;rounded=0;orthogonalLoop=1;jettySize=auto;html=1;fontSize=10;exitX=0.5;exitY=0.913;exitDx=0;exitDy=0;exitPerimeter=0;" parent="NhrbqT9kIadJIBjHelAD-1" source="x4TZjcgzBtY4sppgU5ym-29" target="x4TZjcgzBtY4sppgU5ym-38" edge="1">
          <mxGeometry relative="1" as="geometry" />
        </mxCell>
        <mxCell id="x4TZjcgzBtY4sppgU5ym-29" value="Model" style="shape=document;whiteSpace=wrap;html=1;boundedLbl=1;" parent="NhrbqT9kIadJIBjHelAD-1" vertex="1">
          <mxGeometry x="525" y="830" width="120" height="80" as="geometry" />
        </mxCell>
        <mxCell id="x4TZjcgzBtY4sppgU5ym-34" value="" style="edgeStyle=orthogonalEdgeStyle;rounded=0;orthogonalLoop=1;jettySize=auto;html=1;fontSize=10;" parent="NhrbqT9kIadJIBjHelAD-1" source="x4TZjcgzBtY4sppgU5ym-32" target="x4TZjcgzBtY4sppgU5ym-29" edge="1">
          <mxGeometry relative="1" as="geometry" />
        </mxCell>
        <mxCell id="x4TZjcgzBtY4sppgU5ym-32" value="Training Successful" style="html=1;whiteSpace=wrap;aspect=fixed;shape=isoRectangle;fontSize=10;" parent="NhrbqT9kIadJIBjHelAD-1" vertex="1">
          <mxGeometry x="510" y="676" width="150" height="90" as="geometry" />
        </mxCell>
        <mxCell id="x4TZjcgzBtY4sppgU5ym-35" value="Yes" style="text;html=1;resizable=0;autosize=1;align=center;verticalAlign=middle;points=[];fillColor=none;strokeColor=none;rounded=0;fontSize=10;fontStyle=1" parent="NhrbqT9kIadJIBjHelAD-1" vertex="1">
          <mxGeometry x="550" y="780" width="30" height="20" as="geometry" />
        </mxCell>
        <mxCell id="x4TZjcgzBtY4sppgU5ym-36" value="No" style="text;html=1;resizable=0;autosize=1;align=center;verticalAlign=middle;points=[];fillColor=none;strokeColor=none;rounded=0;fontSize=10;fontStyle=1" parent="NhrbqT9kIadJIBjHelAD-1" vertex="1">
          <mxGeometry x="590" y="629" width="30" height="20" as="geometry" />
        </mxCell>
        <mxCell id="x4TZjcgzBtY4sppgU5ym-37" value="" style="endArrow=classic;html=1;rounded=0;fontSize=10;edgeStyle=orthogonalEdgeStyle;exitX=0.507;exitY=0.011;exitDx=0;exitDy=0;exitPerimeter=0;" parent="NhrbqT9kIadJIBjHelAD-1" source="x4TZjcgzBtY4sppgU5ym-32" edge="1">
          <mxGeometry width="50" height="50" relative="1" as="geometry">
            <mxPoint x="570" y="514" as="sourcePoint" />
            <mxPoint x="370" y="430" as="targetPoint" />
            <Array as="points">
              <mxPoint x="586" y="430" />
            </Array>
          </mxGeometry>
        </mxCell>
        <mxCell id="x4TZjcgzBtY4sppgU5ym-38" value="Performance Evaluation" style="whiteSpace=wrap;html=1;" parent="NhrbqT9kIadJIBjHelAD-1" vertex="1">
          <mxGeometry x="525" y="970" width="120" height="60" as="geometry" />
        </mxCell>
        <mxCell id="x4TZjcgzBtY4sppgU5ym-43" value="" style="edgeStyle=orthogonalEdgeStyle;rounded=0;orthogonalLoop=1;jettySize=auto;html=1;fontSize=10;" parent="NhrbqT9kIadJIBjHelAD-1" source="x4TZjcgzBtY4sppgU5ym-40" edge="1">
          <mxGeometry relative="1" as="geometry">
            <mxPoint x="520" y="870" as="targetPoint" />
          </mxGeometry>
        </mxCell>
        <mxCell id="x4TZjcgzBtY4sppgU5ym-40" value="Test data" style="whiteSpace=wrap;html=1;" parent="NhrbqT9kIadJIBjHelAD-1" vertex="1">
          <mxGeometry x="200" y="840" width="120" height="60" as="geometry" />
        </mxCell>
        <mxCell id="ubYUxe-bVhRZC_ul4Mby-3" value="" style="edgeStyle=orthogonalEdgeStyle;rounded=0;orthogonalLoop=1;jettySize=auto;html=1;" edge="1" parent="NhrbqT9kIadJIBjHelAD-1" source="ubYUxe-bVhRZC_ul4Mby-0" target="ubYUxe-bVhRZC_ul4Mby-2">
          <mxGeometry relative="1" as="geometry" />
        </mxCell>
        <mxCell id="ubYUxe-bVhRZC_ul4Mby-0" value="Stain Normalization" style="whiteSpace=wrap;html=1;rounded=0;" vertex="1" parent="NhrbqT9kIadJIBjHelAD-1">
          <mxGeometry x="505" y="130" width="120" height="60" as="geometry" />
        </mxCell>
        <mxCell id="ubYUxe-bVhRZC_ul4Mby-4" value="" style="edgeStyle=orthogonalEdgeStyle;rounded=0;orthogonalLoop=1;jettySize=auto;html=1;" edge="1" parent="NhrbqT9kIadJIBjHelAD-1" source="ubYUxe-bVhRZC_ul4Mby-2" target="x4TZjcgzBtY4sppgU5ym-4">
          <mxGeometry relative="1" as="geometry" />
        </mxCell>
        <mxCell id="ubYUxe-bVhRZC_ul4Mby-2" value="Normalization" style="whiteSpace=wrap;html=1;rounded=0;" vertex="1" parent="NhrbqT9kIadJIBjHelAD-1">
          <mxGeometry x="505" y="230" width="120" height="60" as="geometry" />
        </mxCell>
        <mxCell id="ubYUxe-bVhRZC_ul4Mby-7" value="" style="edgeStyle=orthogonalEdgeStyle;rounded=0;orthogonalLoop=1;jettySize=auto;html=1;" edge="1" parent="NhrbqT9kIadJIBjHelAD-1" source="ubYUxe-bVhRZC_ul4Mby-5" target="x4TZjcgzBtY4sppgU5ym-27">
          <mxGeometry relative="1" as="geometry" />
        </mxCell>
        <mxCell id="ubYUxe-bVhRZC_ul4Mby-5" value="Model Validation" style="whiteSpace=wrap;html=1;" vertex="1" parent="NhrbqT9kIadJIBjHelAD-1">
          <mxGeometry x="105" y="691" width="120" height="60" as="geometry" />
        </mxCell>
      </root>
    </mxGraphModel>
  </diagram>
</mxfile>
